<svg id="SvgjsSvg1093" xmlns="http://www.w3.org/2000/svg" version="1.1" xmlns:xlink="http://www.w3.org/1999/xlink" xmlns:svgjs="http://svgjs.com/svgjs" width="58" height="58"><defs id="SvgjsDefs1094"></defs><path id="SvgjsPath1095" d="M960 4825C976.05 4825 989 4812.05 989 4796C989 4779.95 976.05 4767 960 4767C943.95 4767 931 4779.95 931 4796C931 4812.05 943.95 4825 960 4825ZM960 4769C974.95 4769 987 4781.05 987 4796C987 4810.95 974.95 4823 960 4823C945.05 4823 933 4810.95 933 4796C933 4781.05 945.05 4769 960 4769ZM949.32 4799L952 4799L952 4797L947 4797C947.4 4805.4 953.1 4811 960 4811C966.9 4811 972.6 4805.4 973 4797L968 4797L968 4799L970.85 4799C969.80979 4804.76846 966.04211 4808.56956 960.9 4808.96571L960.9 4793L963.6 4793C964.1 4793 964.5 4792.6 964.5 4792.1C964.5 4791.6 964.1 4791.200000000001 963.6 4791.200000000001L960.9 4791.200000000001L960.9 4788.900000000001C963.1999999999999 4788.500000000001 965 4786.400000000001 965 4784.000000000001C965 4781.200000000001 962.8 4779.000000000001 960 4779.000000000001C957.2 4779.000000000001 955 4781.200000000001 955 4784.000000000001C955 4786.500000000001 956.8 4788.500000000001 959.1 4788.900000000001L959.1 4791.200000000001L956.4 4791.200000000001C955.9 4791.200000000001 955.5 4791.6 955.5 4792.1C955.5 4792.6 955.9 4793 956.4 4793L959.1 4793L959.1 4808.9656C953.97519 4808.568840000001 950.3601100000001 4804.7679100000005 949.32 4799ZM963.1 4784.1C963.1 4785.900000000001 961.7 4787.3 960 4787.3C958.3 4787.3 956.9 4785.900000000001 956.9 4784.1C956.9 4782.3 958.3 4780.900000000001 960 4780.900000000001C961.7 4780.900000000001 963.1 4782.3 963.1 4784.1Z " fill="#ff1744" fill-opacity="1" transform="matrix(1,0,0,1,-931,-4767)"></path></svg>