<svg id="SvgjsSvg1000" xmlns="http://www.w3.org/2000/svg" version="1.1" xmlns:xlink="http://www.w3.org/1999/xlink" xmlns:svgjs="http://svgjs.com/svgjs" width="13" height="12" viewBox="0 0 13 12"><title>Combined Shape</title><desc>Created with Avocode.</desc><defs id="SvgjsDefs1001"></defs><path id="SvgjsPath1007" d="M544.99261 3508.02443L537.24979 3515.76725C536.86088 3516.15616 536.86088 3516.7925499999997 537.24979 3517.18146C537.6387 3517.57037 538.27509 3517.57037 538.664 3517.18146L546.40682 3509.43864L546.40682 3516.56628C546.40682 3517.11782 546.85937 3517.57037 547.4109100000001 3517.57037C547.9624500000001 3517.57037 548.4079300000001 3517.12489 548.4079300000001 3516.57335L548.4079300000001 3507.02741C548.4079300000001 3506.47587 547.9553800000001 3506.0233200000002 547.4038400000001 3506.0233200000002L537.8579000000001 3506.0233200000002C537.30636 3506.0233200000002 536.8608800000001 3506.4688 536.8608800000001 3507.02034C536.8608800000001 3507.57188 537.31343 3508.02443 537.8649700000001 3508.02443Z " fill="#ffffff" fill-opacity="1" transform="matrix(1,0,0,1,-536,-3506)"></path></svg>