<svg id="SvgjsSvg1118" xmlns="http://www.w3.org/2000/svg" version="1.1" xmlns:xlink="http://www.w3.org/1999/xlink" xmlns:svgjs="http://svgjs.com/svgjs" width="40" height="40"><defs id="SvgjsDefs1119"></defs><path id="SvgjsPath1120" d="M37.6 20C37.6 10.28 29.720000000000002 2.3999999999999986 20 2.3999999999999986C10.28 2.3999999999999986 2.3999999999999986 10.279999999999998 2.3999999999999986 20C2.3999999999999986 29.72 10.279999999999998 37.6 20 37.6C29.72 37.6 37.6 29.720000000000002 37.6 20ZM0 20C0 8.95 8.95 0 20 0C31.05 0 40 8.95 40 20C40 31.05 31.05 40 20 40C8.95 40 0 31.05 0 20Z " fill="#ff1744" fill-opacity="1" transform="matrix(1,0,0,1,0,0)"></path><path id="SvgjsPath1121" d="M15.36 12.03L24.09 20.439999999999998L24.09 18.759999999999998L15.36 27.169999999999998C14.879999999999999 27.63 14.879999999999999 28.389999999999997 15.36 28.849999999999998C15.84 29.319999999999997 16.63 29.319999999999997 17.11 28.849999999999998L25.84 20.439999999999998C26.32 19.979999999999997 26.32 19.22 25.84 18.759999999999998L17.11 10.349999999999998C16.63 9.879999999999997 15.84 9.879999999999997 15.36 10.349999999999998C14.879999999999999 10.809999999999999 14.879999999999999 11.569999999999999 15.36 12.029999999999998Z " fill="#ff1744" fill-opacity="1" transform="matrix(1,0,0,1,0,0)"></path></svg>