<?xml version="1.0" encoding="UTF-8" standalone="no"?>
<svg width="80px" height="80px" viewBox="0 0 80 80" version="1.1" xmlns="http://www.w3.org/2000/svg" xmlns:xlink="http://www.w3.org/1999/xlink">
    <!-- Generator: Sketch 39.1 (31720) - http://www.bohemiancoding.com/sketch -->
    <title>ico/support</title>
    <desc>Created with Sketch.</desc>
    <defs></defs>
    <g id="Style" stroke="none" stroke-width="1" fill="none" fill-rule="evenodd">
        <g id="Botões-e-Links" transform="translate(-692.000000, -567.000000)" fill="#000000">
            <g id="ico/support" transform="translate(692.000000, 567.000000)">
                <path d="M40,78 C61.0382876,78 78,61.0382876 78,40 C78,18.9617124 61.0382876,2 40,2 C18.9617124,2 2,18.9617124 2,40 C2,61.0382876 18.9617124,78 40,78 Z M40,0 C62.1428571,0 80,17.8571429 80,40 C80,62.1428571 62.1428571,80 40,80 C17.8571429,80 0,62.1428571 0,40 C0,17.8571429 17.8571429,0 40,0 Z" id="Shape"></path>
                <path d="M61,40 C61,28.4020203 51.5979797,19 40,19 C28.4020203,19 19,28.4020203 19,40 C19,51.5979797 28.4020203,61 40,61 C51.5979797,61 61,51.5979797 61,40 Z M17,40 C17,27.2974508 27.2974508,17 40,17 C52.7025492,17 63,27.2974508 63,40 C63,52.7025492 52.7025492,63 40,63 C27.2974508,63 17,52.7025492 17,40 Z" id="Oval-51" transform="translate(40.000000, 40.000000) rotate(-360.000000) translate(-40.000000, -40.000000) "></path>
                <path d="M52.9310345,40 C52.9310345,32.8583869 47.1416131,27.0689655 40,27.0689655 C32.8583869,27.0689655 27.0689655,32.8583869 27.0689655,40 C27.0689655,47.1416131 32.8583869,52.9310345 40,52.9310345 C47.1416131,52.9310345 52.9310345,47.1416131 52.9310345,40 Z M25,40 C25,31.7157288 31.7157288,25 40,25 C48.2842712,25 55,31.7157288 55,40 C55,48.2842712 48.2842712,55 40,55 C31.7157288,55 25,48.2842712 25,40 Z" id="Oval-51" transform="translate(40.000000, 40.000000) rotate(-360.000000) translate(-40.000000, -40.000000) "></path>
                <path d="M53.3890873,23.8890873 L54.3890873,24.8890873 L51.3890873,24.8890873 L52.3890873,23.8890873 L52.3890873,31.8890873 L51.3890873,30.8890873 L54.3890873,30.8890873 L53.3890873,31.8890873 L53.3890873,23.8890873 Z M54.3890873,31.8890873 L51.3890873,31.8890873 L51.3890873,23.8890873 L54.3890873,23.8890873 L54.3890873,31.8890873 Z" id="Rectangle-100" transform="translate(52.889087, 27.889087) rotate(-315.000000) translate(-52.889087, -27.889087) "></path>
                <path d="M22.8890873,27.3890873 L23.8890873,26.3890873 L23.8890873,29.3890873 L22.8890873,28.3890873 L30.8890873,28.3890873 L29.8890873,29.3890873 L29.8890873,26.3890873 L30.8890873,27.3890873 L22.8890873,27.3890873 Z M30.8890873,26.3890873 L30.8890873,29.3890873 L22.8890873,29.3890873 L22.8890873,26.3890873 L30.8890873,26.3890873 Z" id="Rectangle-100" transform="translate(26.889087, 27.889087) rotate(-315.000000) translate(-26.889087, -27.889087) "></path>
                <path d="M48.8890873,52.3890873 L49.8890873,51.3890873 L49.8890873,54.3890873 L48.8890873,53.3890873 L56.8890873,53.3890873 L55.8890873,54.3890873 L55.8890873,51.3890873 L56.8890873,52.3890873 L48.8890873,52.3890873 Z M56.8890873,51.3890873 L56.8890873,54.3890873 L48.8890873,54.3890873 L48.8890873,51.3890873 L56.8890873,51.3890873 Z" id="Rectangle-100" transform="translate(52.889087, 52.889087) rotate(-315.000000) translate(-52.889087, -52.889087) "></path>
                <path d="M27.3890873,48.8890873 L28.3890873,49.8890873 L25.3890873,49.8890873 L26.3890873,48.8890873 L26.3890873,56.8890873 L25.3890873,55.8890873 L28.3890873,55.8890873 L27.3890873,56.8890873 L27.3890873,48.8890873 Z M28.3890873,56.8890873 L25.3890873,56.8890873 L25.3890873,48.8890873 L28.3890873,48.8890873 L28.3890873,56.8890873 Z" id="Rectangle-100" transform="translate(26.889087, 52.889087) rotate(-315.000000) translate(-26.889087, -52.889087) "></path>
            </g>
        </g>
    </g>
</svg>