<?xml version="1.0" encoding="UTF-8" standalone="no"?>
<svg width="80px" height="80px" viewBox="0 0 80 80" version="1.1" xmlns="http://www.w3.org/2000/svg" xmlns:xlink="http://www.w3.org/1999/xlink">
    <!-- Generator: Sketch 39.1 (31720) - http://www.bohemiancoding.com/sketch -->
    <title>ico/code</title>
    <desc>Created with Sketch.</desc>
    <defs></defs>
    <g id="Style" stroke="none" stroke-width="1" fill="none" fill-rule="evenodd">
        <g id="Botões-e-Links" transform="translate(-884.000000, -567.000000)" fill="#000000">
            <g id="ico/code" transform="translate(884.000000, 567.000000)">
                <path d="M29.5875,48.5641026 C29.0375,49.1452991 28.2125,49.1452991 27.6625,48.5641026 L19.4125,41.5897436 C19.1375,41.2991453 19,40.8632479 19,40.5726496 C19,40.1367521 19.1375,39.8461538 19.4125,39.4102564 L27.6625,32.4358974 C28.2125,31.8547009 29.0375,31.8547009 29.5875,32.4358974 C30.1375,33.017094 30.1375,33.8888889 29.5875,34.4700855 L22.4375,40.5726496 L29.5875,46.6752137 C30.1375,47.1111111 30.1375,47.982906 29.5875,48.5641026 L29.5875,48.5641026 Z M32.7480615,57.3551382 C32.3133734,58.0680799 31.7337892,58.0680799 30.7195169,57.9254915 C29.9950366,57.6403149 29.8501406,56.6421966 30.1399327,56.0718433 L48.2519385,21.7080573 C48.6866266,20.9951157 49.5560029,20.8525274 50.2804831,21.137704 C51.0049634,21.565469 51.1498594,22.4209989 50.8600673,22.9913522 L32.7480615,57.3551382 L32.7480615,57.3551382 Z M60.5875,41.6525424 L52.3375,48.5677966 C51.7875,49.1440678 50.9625,49.1440678 50.4125,48.5677966 C49.8625,47.9915254 49.8625,47.1271186 50.4125,46.5508475 L57.5625,40.5 L50.4125,34.4491525 C49.8625,33.8728814 49.8625,33.0084746 50.4125,32.4322034 C50.9625,31.8559322 51.7875,31.8559322 52.3375,32.4322034 L60.5875,39.3474576 C60.8625,39.6355932 61,40.0677966 61,40.5 C61,40.9322034 60.8625,41.3644068 60.5875,41.6525424 L60.5875,41.6525424 Z" id="Shape-Copy-5"></path>
                <path d="M40,78 C61.0382876,78 78,61.0382876 78,40 C78,18.9617124 61.0382876,2 40,2 C18.9617124,2 2,18.9617124 2,40 C2,61.0382876 18.9617124,78 40,78 Z M40,0 C62.1428571,0 80,17.8571429 80,40 C80,62.1428571 62.1428571,80 40,80 C17.8571429,80 0,62.1428571 0,40 C0,17.8571429 17.8571429,0 40,0 Z" id="Shape-Copy-4"></path>
            </g>
        </g>
    </g>
</svg>