<svg id="SvgjsSvg1000" xmlns="http://www.w3.org/2000/svg" version="1.1" xmlns:xlink="http://www.w3.org/1999/xlink" xmlns:svgjs="http://svgjs.com/svgjs" width="51" height="51"><defs id="SvgjsDefs1001"></defs><path id="SvgjsPath1007" d="M1154 299.5C1154 287.07 1143.93 277 1131.5 277C1119.07 277 1109 287.07 1109 299.5C1109 311.93 1119.07 322 1131.5 322C1143.93 322 1154 311.93 1154 299.5ZM1106 299.5C1106 285.42 1117.42 274 1131.5 274C1145.58 274 1157 285.42 1157 299.5C1157 313.58 1145.58 325 1131.5 325C1117.42 325 1106 313.58 1106 299.5Z " fill="#ffffff" fill-opacity="1" transform="matrix(1,0,0,1,-1106,-274)"></path><path id="SvgjsPath1008" d="M1130 288.5C1130 287.67157 1130.67157 287 1131.5 287C1132.32843 287 1133 287.67157 1133 288.5L1133 298L1142.5 298C1143.32843 298 1144 298.67157 1144 299.5C1144 300.32843 1143.32843 301 1142.5 301L1133 301L1133 310.5C1133 311.32843 1132.32843 312 1131.5 312C1130.67157 312 1130 311.32843 1130 310.5L1130 301L1120.5 301C1119.67157 301 1119 300.32843 1119 299.5C1119 298.67157 1119.67157 298 1120.5 298L1130 298Z " fill="#ffffff" fill-opacity="1" transform="matrix(1,0,0,1,-1106,-274)"></path></svg>