<svg id="SvgjsSvg1000" xmlns="http://www.w3.org/2000/svg" version="1.1" xmlns:xlink="http://www.w3.org/1999/xlink" xmlns:svgjs="http://svgjs.com/svgjs" width="28" height="32"><defs id="SvgjsDefs1001"></defs><path id="SvgjsPath1007" d="M1025.25 2227.95C1023.22 2226.93 1021.39 2224.39 1021.09 2224.0899999999997C1020.7800000000001 2223.7799999999997 1020.7800000000001 2224.39 1020.7800000000001 2224.39C1020.4800000000001 2226.42 1019.9700000000001 2226.93 1019.3600000000001 2227.44C1018.9600000000002 2227.7400000000002 1018.1400000000001 2228.35 1017.5400000000001 2228.76C1011.96 2230.59 1008.0000000000001 2235.88 1008.0000000000001 2241.9700000000003C1008.0000000000001 2249.7000000000003 1014.2900000000001 2256.0000000000005 1022.0000000000001 2256.0000000000005C1029.71 2256.0000000000005 1036 2249.7000000000003 1036 2241.9700000000003C1036 2236.1800000000003 1032.45 2231.2000000000003 1027.38 2229.07C1026.97 2228.86 1026.46 2228.56 1025.25 2227.9500000000003ZM1025.45 2253.76C1023.72 2253.8700000000003 1022 2253.76 1020.7800000000001 2252.75C1020.7800000000001 2252.75 1020.4800000000001 2252.54 1020.7800000000001 2252.14C1020.7800000000001 2252.14 1021.09 2251.93 1021.4900000000001 2252.14C1021.9000000000001 2252.3399999999997 1023.4200000000001 2253.15 1025.45 2252.95C1027.48 2252.75 1028.49 2252.14 1028.7 2252.04C1028.9 2251.93 1029.2 2251.73 1029.2 2252.14C1029.3 2252.44 1029.1000000000001 2252.54 1028.9 2252.65C1028.7 2252.75 1027.2800000000002 2253.6600000000003 1025.45 2253.76ZM1026.67 2248.78C1028.29 2248.78 1028.49 2249.9 1028.5900000000001 2250C1028.7 2250.21 1028.8000000000002 2250.41 1028.4900000000002 2250.61C1028.1900000000003 2250.82 1027.9900000000002 2250.4100000000003 1027.9900000000002 2250.4100000000003C1027.4800000000002 2249.3900000000003 1026.4600000000003 2249.6000000000004 1026.4600000000003 2249.6000000000004C1025.9600000000003 2249.5000000000005 1024.9400000000003 2250.2100000000005 1024.5400000000002 2250.4100000000003C1024.2300000000002 2250.61 1023.8300000000002 2250.9200000000005 1023.7200000000001 2250.7100000000005C1023.5200000000001 2250.5100000000007 1023.6200000000001 2250.3100000000004 1023.8300000000002 2250.0000000000005C1024.0300000000002 2249.8000000000006 1025.0400000000002 2248.7800000000007 1026.67 2248.7800000000007ZM1027.07 2245.63C1026.1599999999999 2245.53 1025.35 2246.2400000000002 1024.74 2246.55C1024.13 2246.8500000000004 1020.58 2249.3900000000003 1018.14 2249.29C1015.71 2249.19 1014.39 2248.2799999999997 1014.1899999999999 2245.73C1014.1899999999999 2245.73 1014.0899999999999 2242.9900000000002 1016.93 2241.57C1019.77 2240.1400000000003 1022.41 2241.8700000000003 1023.12 2242.38C1023.72 2242.8900000000003 1025.86 2244.62 1026.97 2244.51C1028.09 2244.4100000000003 1029.81 2243.09 1030.22 2242.8900000000003C1030.6200000000001 2242.6900000000005 1032.75 2240.7500000000005 1033.97 2241.8700000000003C1035.19 2242.9900000000002 1034.78 2244.51 1034.58 2245.4300000000003C1034.3799999999999 2246.55 1033.06 2250.61 1030.9299999999998 2248.6800000000003C1028.7999999999997 2246.7500000000005 1028.09 2245.7300000000005 1027.07 2245.63Z " fill="#ffffff" fill-opacity="1" transform="matrix(1,0,0,1,-1008,-2224)"></path></svg>