<?xml version="1.0" encoding="UTF-8" standalone="no"?>
<svg width="80px" height="80px" viewBox="0 0 80 80" version="1.1" xmlns="http://www.w3.org/2000/svg" xmlns:xlink="http://www.w3.org/1999/xlink">
    <!-- Generator: Sketch 39.1 (31720) - http://www.bohemiancoding.com/sketch -->
    <title>ico/drupal</title>
    <desc>Created with Sketch.</desc>
    <defs></defs>
    <g id="Style" stroke="none" stroke-width="1" fill="none" fill-rule="evenodd">
        <g id="Botões-e-Links" transform="translate(-1026.000000, -537.000000)" fill="#000000">
            <g id="ico/drupal" transform="translate(1026.000000, 537.000000)">
                <path d="M2,40 C2,61.0382876 18.9617124,78 40,78 C61.0382876,78 78,61.0382876 78,40 C78,18.9617124 61.0382876,2 40,2 C18.9617124,2 2,18.9617124 2,40 Z M80,40 C80,62.1428571 62.1428571,80 40,80 C17.8571429,80 0,62.1428571 0,40 C0,17.8571429 17.8571429,0 40,0 C62.1428571,0 80,17.8571429 80,40 Z" id="Shape-Copy-7"></path>
                <path d="M40.005043,34.4609375 C37.4714662,37.1484375 33.3377357,40.2390625 33.3377357,44.1359375 C33.3377357,48.0328125 36.2713509,51.2578125 40.005043,51.2578125 C43.7387351,51.2578125 46.6723504,48.0328125 46.6723504,44.1359375 C46.6723504,40.2390625 42.5386198,37.2828125 40.005043,34.4609375 L40.005043,34.4609375 Z M40.005043,53.9453125 C34.8045433,53.9453125 30.6708128,49.7796875 30.6708128,44.6734375 C30.6708128,39.5671875 36.5380432,34.5953125 40.005043,31.1015625 C43.605389,34.7296875 49.3392733,39.5671875 49.3392733,44.6734375 C49.3392733,49.7796875 45.2055428,53.9453125 40.005043,53.9453125 L40.005043,53.9453125 Z M40.005043,21.6953125 C34.537851,27.3390625 25.3369669,35.1328125 25.3369669,43.1953125 C25.3369669,51.2578125 31.8709281,57.9765625 40.005043,57.9765625 C48.139158,57.9765625 54.6731192,51.3921875 54.6731192,43.1953125 C54.6731192,34.9984375 45.7389273,27.4734375 40.005043,21.6953125 L40.005043,21.6953125 Z M23,43.1323242 C23,33.6084961 33.5923077,24.4814941 40,18 C46.6692308,24.7460449 57,33.6084961 57,43.1323242 C57,52.6561523 49.4153846,60.328125 40,60.328125 C30.5846154,60.328125 23,52.6561523 23,43.1323242 Z" id="Shape-Copy-6"></path>
            </g>
        </g>
    </g>
</svg>