<svg id="SvgjsSvg1014" xmlns="http://www.w3.org/2000/svg" version="1.1" xmlns:xlink="http://www.w3.org/1999/xlink" xmlns:svgjs="http://svgjs.com/svgjs" width="14" height="28"><defs id="SvgjsDefs1015"></defs><path id="SvgjsPath1016" d="M1163.09 2236.35L1167.23 2236.35L1167.23 2232.2999999999997C1167.23 2232.2999999999997 1167.04 2229.64 1168.92 2227.6699999999996C1170.8000000000002 2225.6899999999996 1173.3400000000001 2225.8899999999994 1177 2226.1899999999996L1177 2230.6199999999994L1174.28 2230.6199999999994C1174.28 2230.6199999999994 1173.1499999999999 2230.6199999999994 1172.58 2231.2199999999993C1172.02 2231.8099999999995 1172.11 2232.7899999999995 1172.11 2232.9899999999993L1172.11 2236.2499999999995L1176.7199999999998 2236.2499999999995L1176.1499999999999 2241.1799999999994L1172.11 2241.1799999999994L1172.11 2253.9999999999995L1167.1299999999999 2253.9999999999995L1167.1299999999999 2241.1799999999994L1162.9999999999998 2241.1799999999994L1162.9999999999998 2236.3499999999995Z " fill="#ffffff" fill-opacity="1" transform="matrix(1,0,0,1,-1163,-2226)"></path></svg>