<svg id="SvgjsSvg1099" xmlns="http://www.w3.org/2000/svg" version="1.1" xmlns:xlink="http://www.w3.org/1999/xlink" xmlns:svgjs="http://svgjs.com/svgjs" width="32" height="32"><defs id="SvgjsDefs1100"></defs><path id="SvgjsPath1101" d="M1102.47 2226.98C1104.03 2227.05 1104.8700000000001 2227.31 1105.44 2227.53C1106.18 2227.82 1106.72 2228.1600000000003 1107.28 2228.7200000000003C1107.84 2229.28 1108.18 2229.82 1108.47 2230.5600000000004C1108.69 2231.1300000000006 1108.95 2231.9700000000003 1109.02 2233.53C1109.1 2235.2200000000003 1109.12 2235.73 1109.12 2240C1109.12 2244.27 1109.1 2244.78 1109.02 2246.47C1108.95 2248.0299999999997 1108.69 2248.87 1108.47 2249.4399999999996C1108.18 2250.1799999999994 1107.84 2250.72 1107.28 2251.2799999999997C1106.72 2251.8399999999997 1106.18 2252.18 1105.44 2252.47C1104.8700000000001 2252.6899999999996 1104.03 2252.95 1102.47 2253.02C1100.78 2253.1 1100.27 2253.12 1096 2253.12C1091.73 2253.12 1091.22 2253.1 1089.53 2253.02C1087.97 2252.95 1087.1299999999999 2252.69 1086.56 2252.47C1085.82 2252.18 1085.28 2251.8399999999997 1084.72 2251.2799999999997C1084.16 2250.72 1083.82 2250.18 1083.53 2249.4399999999996C1083.31 2248.8699999999994 1083.05 2248.0299999999997 1082.98 2246.47C1082.9 2244.7799999999997 1082.88 2244.27 1082.88 2240C1082.88 2235.73 1082.9 2235.22 1082.98 2233.53C1083.05 2231.9700000000003 1083.31 2231.13 1083.53 2230.5600000000004C1083.82 2229.8200000000006 1084.16 2229.28 1084.72 2228.7200000000003C1085.28 2228.1600000000003 1085.82 2227.82 1086.56 2227.53C1087.1299999999999 2227.3100000000004 1087.97 2227.05 1089.53 2226.98C1091.22 2226.9 1091.73 2226.88 1096 2226.88C1100.27 2226.88 1100.78 2226.9 1102.47 2226.98ZM1089.4 2224.1C1087.7 2224.17 1086.5400000000002 2224.44 1085.52 2224.8399999999997C1084.47 2225.2499999999995 1083.57 2225.7999999999997 1082.69 2226.6899999999996C1081.8 2227.5699999999997 1081.25 2228.47 1080.8400000000001 2229.5199999999995C1080.44 2230.5399999999995 1080.17 2231.6999999999994 1080.1000000000001 2233.3999999999996C1080.0200000000002 2235.1099999999997 1080.0000000000002 2235.6499999999996 1080.0000000000002 2239.9999999999995C1080.0000000000002 2244.3499999999995 1080.0200000000002 2244.8899999999994 1080.1000000000001 2246.5999999999995C1080.17 2248.2999999999993 1080.44 2249.4599999999996 1080.8400000000001 2250.4799999999996C1081.2500000000002 2251.5299999999997 1081.8000000000002 2252.4299999999994 1082.69 2253.3099999999995C1083.5700000000002 2254.1999999999994 1084.47 2254.7499999999995 1085.52 2255.1599999999994C1086.54 2255.5599999999995 1087.7 2255.8299999999995 1089.4 2255.899999999999C1091.1100000000001 2255.979999999999 1091.65 2255.999999999999 1096 2255.999999999999C1100.35 2255.999999999999 1100.89 2255.979999999999 1102.6 2255.899999999999C1104.3 2255.829999999999 1105.4599999999998 2255.559999999999 1106.48 2255.1599999999994C1107.53 2254.7499999999995 1108.43 2254.1999999999994 1109.31 2253.3099999999995C1110.2 2252.4299999999994 1110.75 2251.5299999999993 1111.1599999999999 2250.4799999999996C1111.56 2249.4599999999996 1111.83 2248.2999999999997 1111.8999999999999 2246.5999999999995C1111.9799999999998 2244.8899999999994 1111.9999999999998 2244.3499999999995 1111.9999999999998 2239.9999999999995C1111.9999999999998 2235.6499999999996 1111.9799999999998 2235.1099999999997 1111.8999999999999 2233.3999999999996C1111.83 2231.7 1111.56 2230.5399999999995 1111.1599999999999 2229.5199999999995C1110.7499999999998 2228.4699999999993 1110.1999999999998 2227.5699999999997 1109.31 2226.6899999999996C1108.4299999999998 2225.7999999999997 1107.53 2225.2499999999995 1106.48 2224.8399999999997C1105.46 2224.4399999999996 1104.3 2224.1699999999996 1102.6 2224.1C1100.8899999999999 2224.02 1100.35 2224 1096 2224C1091.65 2224 1091.11 2224.02 1089.4 2224.1Z " fill="#ffffff" fill-opacity="1" transform="matrix(1,0,0,1,-1080,-2224)"></path><path id="SvgjsPath1102" d="M1088 2240C1088 2244.42 1091.58 2248 1096 2248C1100.42 2248 1104 2244.42 1104 2240C1104 2235.58 1100.42 2232 1096 2232C1091.58 2232 1088 2235.58 1088 2240ZM1090.81 2240C1090.81 2237.13 1093.1299999999999 2234.81 1096 2234.81C1098.87 2234.81 1101.19 2237.13 1101.19 2240C1101.19 2242.87 1098.8700000000001 2245.19 1096 2245.19C1093.13 2245.19 1090.81 2242.87 1090.81 2240Z " fill="#ffffff" fill-opacity="1" transform="matrix(1,0,0,1,-1080,-2224)"></path><path id="SvgjsPath1103" d="M1107 2232C1107 2233.1 1106.1 2234 1105 2234C1103.9 2234 1103 2233.1 1103 2232C1103 2230.9 1103.9 2230 1105 2230C1106.1 2230 1107 2230.9 1107 2232 " fill="#ffffff" fill-opacity="1" transform="matrix(1,0,0,1,-1080,-2224)"></path></svg>