<svg id="SvgjsSvg1104" xmlns="http://www.w3.org/2000/svg" version="1.1" xmlns:xlink="http://www.w3.org/1999/xlink" xmlns:svgjs="http://svgjs.com/svgjs" width="22" height="21"><defs id="SvgjsDefs1105"></defs><path id="SvgjsPath1106" d="M1233 2231.5C1233 2230.11929 1234.11929 2229 1235.5 2229C1236.88071 2229 1238 2230.11929 1238 2231.5C1238 2232.88071 1236.88071 2234 1235.5 2234C1234.11929 2234 1233 2232.88071 1233 2231.5Z " fill="#ffffff" fill-opacity="1" transform="matrix(1,0,0,1,-1233,-2229)"></path><path id="SvgjsPath1107" d="M1234 2250L1234 2236L1238 2236L1238 2250Z " fill="#ffffff" fill-opacity="1" transform="matrix(1,0,0,1,-1233,-2229)"></path><path id="SvgjsPath1108" d="M1241 2250L1245.43 2250L1245.43 2242.87C1245.43 2242.87 1245.23 2239.69 1247.95 2239.69C1250.66 2239.69 1250.46 2242.1 1250.46 2242.9700000000003L1250.46 2250.0000000000005L1254.99 2250.0000000000005L1254.99 2242.5800000000004C1254.99 2242.5800000000004 1255.29 2237.1900000000005 1251.97 2236.32C1248.65 2235.46 1246.44 2236.42 1245.33 2238.25L1245.33 2236.32L1241 2236.32Z " fill="#ffffff" fill-opacity="1" transform="matrix(1,0,0,1,-1233,-2229)"></path></svg>