<svg id="SvgjsSvg1090" xmlns="http://www.w3.org/2000/svg" version="1.1" xmlns:xlink="http://www.w3.org/1999/xlink" xmlns:svgjs="http://svgjs.com/svgjs" width="58" height="58"><defs id="SvgjsDefs1091"></defs><path id="SvgjsPath1092" d="M962 5245C978.05 5245 991 5232.05 991 5216C991 5199.95 978.05 5187 962 5187C945.95 5187 933 5199.95 933 5216C933 5231.99 945.98 5245 962 5245ZM962 5189C976.95 5189 989 5201.05 989 5216C989 5230.95 976.95 5243 962 5243C947.09 5243 935 5230.88 935 5216C935 5201.05 947.05 5189 962 5189ZM951.2 5213C951.2 5218.5 955.7 5223 961.2 5223C966.7 5223 971.2 5218.5 971.2 5213C971.2 5207.4 966.7 5203 961.2 5203C955.7 5203 951.2 5207.5 951.2 5213ZM954.2 5213C954.2 5209.1 957.3000000000001 5206 961.2 5206C965.1 5206 968.2 5209.1 968.2 5213C968.2 5216.8 965.1 5220 961.2 5220C957.3000000000001 5220 954.2 5216.9 954.2 5213ZM956.2 5213C956.2 5215.8 958.4000000000001 5218 961.2 5218C964 5218 966.2 5215.8 966.2 5213C966.2 5210.2 964 5208 961.2 5208C958.4000000000001 5208 956.2 5210.2 956.2 5213ZM952.6 5226.5C954 5227.9 955.6 5229.4 955.6 5229.4L958.3000000000001 5224.9C955.5000000000001 5224.2 953.1 5222.599999999999 951.4000000000001 5220.4L948.5000000000001 5225.299999999999ZM969.8 5226.4L973.9 5225.2L971 5220.3C969.3 5222.5 966.9 5224.1 964.1 5224.8L966.8000000000001 5229.3C966.8000000000001 5229.3 968.3000000000001 5227.8 969.8000000000001 5226.400000000001ZM970.8 5228.2L966.5 5233L961.9 5225.2C961.6 5225.2 961.4 5225.2 961.1 5225.2C960.8000000000001 5225.2 960.6 5225.2 960.3000000000001 5225.2L955.7 5233L951.4000000000001 5228.2C948.2 5227.5 945.0000000000001 5226.9 945.0000000000001 5226.9L950.0000000000001 5218.4C949.2000000000002 5216.799999999999 948.7000000000002 5215 948.7000000000002 5213.099999999999C948.7000000000002 5206.4 954.2000000000002 5200.999999999999 961.0000000000001 5200.999999999999C967.8000000000001 5200.999999999999 973.3000000000001 5206.399999999999 973.3000000000001 5213.099999999999C973.3000000000001 5214.999999999999 972.8000000000001 5216.799999999999 972.0000000000001 5218.4L977.2000000000002 5226.9C977.2000000000002 5226.9 974.0000000000001 5227.5 970.8000000000002 5228.2Z " fill="#ff1744" fill-opacity="1" transform="matrix(1,0,0,1,-933,-5187)"></path></svg>