<?xml version="1.0" encoding="UTF-8" standalone="no"?>
<svg width="80px" height="80px" viewBox="0 0 80 80" version="1.1" xmlns="http://www.w3.org/2000/svg" xmlns:xlink="http://www.w3.org/1999/xlink">
    <!-- Generator: Sketch 39.1 (31720) - http://www.bohemiancoding.com/sketch -->
    <title>ico/design</title>
    <desc>Created with Sketch.</desc>
    <defs></defs>
    <g id="Style" stroke="none" stroke-width="1" fill="none" fill-rule="evenodd">
        <g id="Botões-e-Links" transform="translate(-788.000000, -562.000000)" fill="#000000">
            <g id="ico/design" transform="translate(788.000000, 562.000000)">
                <path d="M28,29 L52,29 L52,23 L28,23 L28,29 L28,29 Z M39,56.9480544 C37.194776,53.8247569 34.1511312,49.1750335 29.6395939,44.2450593 C33.5460732,37.3646377 34.3274648,32.7202846 34.4837623,31 L45.1527875,31 C45.3856943,32.9672624 46.3505254,38.0552929 50.2284264,44.2450593 C45.5785369,49.3025965 42.7056664,53.6708246 41,56.6598105 L41,48 L39,48 L39,56.9480544 Z M47.3176589,31 L52.1333333,31 C53.2,31 54,30.0666667 54,29.1333333 L54,22.8666667 C54,21.8 53.2,21 52.1333333,21 L27.8666667,21 C26.8,21 26,21.8 26,22.8666667 L26,29.1333333 C26,30.2 26.8,31 27.8666667,31 L32.3548734,31 C32.1597443,32.6705662 31.2882495,37.1367485 27.3959391,43.7075099 L27,44.513834 L27.6598985,45.1857708 C35.4467005,53.3833992 39.142132,61.4466403 39.142132,61.5810277 L40,64 L40.857868,61.5810277 C40.857868,61.4466403 43.6294416,54.3241107 52.3401015,45.1857708 L53,44.513834 L52.4720812,43.7075099 C48.7600016,37.986735 47.6409243,33.0425206 47.3176589,31 Z M40,39 C38.4210526,39 37,40.35 37,42 C37,43.65 38.2631579,45 40,45 C41.7368421,45 43,43.65 43,42 C43,40.35 41.5789474,39 40,39 Z M40,47 C37.2857143,47 35,44.7777778 35,42 C35,39.2222222 37.2857143,37 40,37 C42.7142857,37 45,39.2222222 45,42 C45,44.7777778 42.7142857,47 40,47 L40,47 Z" id="Shape-Copy-3"></path>
                <path d="M2,40 C2,61.0382876 18.9617124,78 40,78 C61.0382876,78 78,61.0382876 78,40 C78,18.9617124 61.0382876,2 40,2 C18.9617124,2 2,18.9617124 2,40 Z M80,40 C80,62.1428571 62.1428571,80 40,80 C17.8571429,80 0,62.1428571 0,40 C0,17.8571429 17.8571429,0 40,0 C62.1428571,0 80,17.8571429 80,40 Z" id="Shape-Copy-7"></path>
            </g>
        </g>
    </g>
</svg>