<?xml version="1.0" encoding="UTF-8" standalone="no"?>
<svg width="34px" height="45px" viewBox="0 0 34 45" version="1.1" xmlns="http://www.w3.org/2000/svg" xmlns:xlink="http://www.w3.org/1999/xlink">
    <!-- Generator: Sketch 39.1 (31720) - http://www.bohemiancoding.com/sketch -->
    <title>ico-pin</title>
    <desc>Created with Sketch.</desc>
    <defs></defs>
    <g id="Style" stroke="none" stroke-width="1" fill="none" fill-rule="evenodd">
        <g id="Botões-e-Links" transform="translate(-1009.000000, -571.000000)" fill="#000000">
            <g id="ico-pin" transform="translate(1009.000000, 571.000000)">
                <path d="M17.9169082,43.4807412 C18.0655028,43.3186059 18.2375527,43.1291305 18.4311092,42.9138639 C18.9829382,42.3001394 19.5973377,41.601911 20.2587311,40.8315447 C22.1482627,38.6306887 24.0378616,36.2906081 25.8033161,33.9092614 C27.3271097,31.8538808 28.6888371,29.8594161 29.8473794,27.9572032 C32.5138049,23.5791939 34,19.8826833 34,17 C34,7.61115925 26.3888407,0 17,0 C7.61115925,0 0,7.61115925 0,17 C0,19.8826833 1.48619507,23.5791939 4.1526206,27.9572032 C5.31116286,29.8594161 6.67289032,31.8538808 8.19668392,33.9092614 C9.96213837,36.2906081 11.8517373,38.6306887 13.7412689,40.8315447 C14.4026623,41.601911 15.0170618,42.3001394 15.5688908,42.9138639 C15.7624473,43.1291305 15.9344972,43.3186059 16.0830918,43.4807412 C16.1729198,43.5787547 16.2353845,43.6463179 16.2685364,43.6818805 L17,44.4665326 L17.7314636,43.6818805 C17.7646155,43.6463179 17.8270802,43.5787547 17.9169082,43.4807412 Z M17.7314636,42.3181195 C17.6104425,42.1882984 17.3801053,41.9369717 17.0561092,41.5766348 C16.5141882,40.9739298 15.9098377,40.2871214 15.2587311,39.5287367 C13.3982627,37.3617325 11.5378616,35.0578106 9.80331608,32.7181556 C8.31345483,30.7085449 6.98519861,28.763104 5.86074901,26.916868 C3.3708457,22.8286908 2,19.4190808 2,17 C2,8.71572875 8.71572875,2 17,2 C25.2842712,2 32,8.71572875 32,17 C32,19.4190808 30.6291543,22.8286908 28.139251,26.916868 C27.0148014,28.763104 25.6865452,30.7085449 24.1966839,32.7181556 C22.4621384,35.0578106 20.6017373,37.3617325 18.7412689,39.5287367 C18.0901623,40.2871214 17.4858118,40.9739298 16.9438908,41.5766348 C16.6198947,41.9369717 16.3895575,42.1882984 16.2685364,42.3181195 L17.7314636,42.3181195 Z" id="Oval-3"></path>
                <path d="M26,17 C26,12.0294373 21.9705627,8 17,8 C12.0294373,8 8,12.0294373 8,17 C8,21.9705627 12.0294373,26 17,26 C21.9705627,26 26,21.9705627 26,17 Z M10,17 C10,13.1340068 13.1340068,10 17,10 C20.8659932,10 24,13.1340068 24,17 C24,20.8659932 20.8659932,24 17,24 C13.1340068,24 10,20.8659932 10,17 Z" id="Oval-3"></path>
            </g>
        </g>
    </g>
</svg>