<svg id="SvgjsSvg1087" xmlns="http://www.w3.org/2000/svg" version="1.1" xmlns:xlink="http://www.w3.org/1999/xlink" xmlns:svgjs="http://svgjs.com/svgjs" width="58" height="58"><defs id="SvgjsDefs1088"></defs><path id="SvgjsPath1089" d="M480 5245C496.05 5245 509 5232.05 509 5216C509 5199.95 496.05 5187 480 5187C463.95 5187 451 5199.95 451 5216C451 5232.05 463.95 5245 480 5245ZM480 5189C494.95 5189 507 5201.05 507 5216C507 5230.95 494.95 5243 480 5243C465.05 5243 453 5230.95 453 5216C453 5201.05 465.05 5189 480 5189ZM480 5203.4L476.2 5211.4L467.5 5212.5L473.9 5219L472.5 5227.4L479.9 5223.2L487.2 5227.4L485.9 5219L492.2 5212.5L483.7 5211.4ZM489.9 5231.1L480 5225.6L470.1 5231.1L472 5219.5L464 5211.3L475 5209.6L480 5199L485 5209.6L496 5211.3L488 5219.5Z " fill="#ff1744" fill-opacity="1" transform="matrix(1,0,0,1,-451,-5187)"></path></svg>