<?xml version="1.0" encoding="UTF-8" standalone="no"?>
<svg width="308px" height="251px" viewBox="0 0 308 251" version="1.1" xmlns="http://www.w3.org/2000/svg" xmlns:xlink="http://www.w3.org/1999/xlink">
    <!-- Generator: Sketch 39.1 (31720) - http://www.bohemiancoding.com/sketch -->
    <title>The</title>
    <desc>Created with Sketch.</desc>
    <defs></defs>
    <g id="Home" stroke="none" stroke-width="1" fill="none" fill-rule="evenodd">
        <g id="Home_Desk" transform="translate(-270.000000, -477.000000)" fill="#FFFFFF">
            <g id="HOME">
                <g id="Chamada" transform="translate(270.000000, 397.000000)">
                    <path d="M20.43,92.62 L20.43,145 L34.56,145 L34.56,92.62 L53.82,92.62 L53.82,80.74 L1.17,80.74 L1.17,92.62 L20.43,92.62 Z M57.85,80.74 L57.85,145 L70.63,145 L70.63,120.61 C70.63,115.869976 71.4099922,112.46501 72.97,110.395 C74.5300078,108.32499 77.0499826,107.29 80.53,107.29 C83.5900153,107.29 85.719994,108.234991 86.92,110.125 C88.120006,112.015009 88.72,114.879981 88.72,118.72 L88.72,145 L101.5,145 L101.5,116.38 C101.5,113.499986 101.245003,110.875012 100.735,108.505 C100.224997,106.134988 99.3400063,104.125008 98.08,102.475 C96.8199937,100.824992 95.095011,99.5350046 92.905,98.605 C90.7149891,97.6749953 87.9100171,97.21 84.49,97.21 C82.089988,97.21 79.6300126,97.8249938 77.11,99.055 C74.5899874,100.285006 72.5200081,102.249986 70.9,104.95 L70.63,104.95 L70.63,80.74 L57.85,80.74 Z M140.54,116.74 L119.75,116.74 C119.81,115.839995 120.004998,114.820006 120.335,113.68 C120.665002,112.539994 121.234996,111.460005 122.045,110.44 C122.855004,109.419995 123.934993,108.565003 125.285,107.875 C126.635007,107.184997 128.32999,106.84 130.37,106.84 C133.490016,106.84 135.814992,107.679992 137.345,109.36 C138.875008,111.040008 139.939997,113.499984 140.54,116.74 L140.54,116.74 Z M119.75,124.84 L153.32,124.84 C153.560001,121.239982 153.260004,117.790017 152.42,114.49 C151.579996,111.189984 150.215009,108.250013 148.325,105.67 C146.434991,103.089987 144.020015,101.035008 141.08,99.505 C138.139985,97.9749923 134.69002,97.21 130.73,97.21 C127.189982,97.21 123.965015,97.8399937 121.055,99.1 C118.144985,100.360006 115.640011,102.084989 113.54,104.275 C111.43999,106.465011 109.820006,109.059985 108.68,112.06 C107.539994,115.060015 106.97,118.299983 106.97,121.78 C106.97,125.380018 107.524994,128.679985 108.635,131.68 C109.745006,134.680015 111.31999,137.259989 113.36,139.42 C115.40001,141.580011 117.889985,143.244994 120.83,144.415 C123.770015,145.585006 127.069982,146.17 130.73,146.17 C136.010026,146.17 140.509981,144.970012 144.23,142.57 C147.950019,140.169988 150.709991,136.180028 152.51,130.6 L141.26,130.6 C140.839998,132.040007 139.700009,133.404994 137.84,134.695 C135.979991,135.985006 133.760013,136.63 131.18,136.63 C127.579982,136.63 124.82001,135.700009 122.9,133.84 C120.97999,131.979991 119.930001,128.980021 119.75,124.84 L119.75,124.84 Z M37.89,206.210626 C37.89,208.130636 37.7100018,209.990617 37.35,211.790626 C36.9899982,213.590635 36.3900042,215.195619 35.55,216.605626 C34.7099958,218.015633 33.585007,219.140622 32.175,219.980626 C30.7649929,220.82063 29.0100105,221.240626 26.91,221.240626 C24.9299901,221.240626 23.235007,220.805631 21.825,219.935626 C20.4149929,219.065622 19.2450046,217.925633 18.315,216.515626 C17.3849953,215.105619 16.7100021,213.500635 16.29,211.700626 C15.8699979,209.900617 15.66,208.100635 15.66,206.300626 C15.66,204.380617 15.854998,202.535635 16.245,200.765626 C16.6350019,198.995617 17.2649956,197.420633 18.135,196.040626 C19.0050043,194.660619 20.1599928,193.55063 21.6,192.710626 C23.0400072,191.870622 24.8099895,191.450626 26.91,191.450626 C29.0100105,191.450626 30.7499931,191.870622 32.13,192.710626 C33.5100069,193.55063 34.6349956,194.645619 35.505,195.995626 C36.3750043,197.345633 36.9899982,198.905617 37.35,200.675626 C37.7100018,202.445635 37.89,204.290617 37.89,206.210626 L37.89,206.210626 Z M38.07,223.670626 L38.07,229.610626 L50.22,229.610626 L50.22,165.350626 L37.44,165.350626 L37.44,188.750626 L37.26,188.750626 C35.8199928,186.470615 33.8550125,184.745632 31.365,183.575626 C28.8749876,182.40562 26.2500138,181.820626 23.49,181.820626 C20.0699829,181.820626 17.0700129,182.495619 14.49,183.845626 C11.9099871,185.195633 9.76500855,186.980615 8.055,189.200626 C6.34499145,191.420637 5.05500435,193.985612 4.185,196.895626 C3.31499565,199.805641 2.88,202.820611 2.88,205.940626 C2.88,209.180642 3.31499565,212.300611 4.185,215.300626 C5.05500435,218.300641 6.34499145,220.955615 8.055,223.265626 C9.76500855,225.575638 11.9399868,227.405619 14.58,228.755626 C17.2200132,230.105633 20.2799826,230.780626 23.76,230.780626 C26.8200153,230.780626 29.5649879,230.225632 31.995,229.115626 C34.4250122,228.005621 36.3899925,226.190639 37.89,223.670626 L38.07,223.670626 Z M70.99,175.880626 L70.99,165.350626 L58.21,165.350626 L58.21,175.880626 L70.99,175.880626 Z M58.21,183.080626 L58.21,229.610626 L70.99,229.610626 L70.99,183.080626 L58.21,183.080626 Z M100.76,218.630626 C98.7799901,218.630626 97.1300066,218.21063 95.81,217.370626 C94.4899934,216.530622 93.425004,215.450633 92.615,214.130626 C91.8049959,212.81062 91.2350016,211.325634 90.905,209.675626 C90.5749983,208.025618 90.41,206.360635 90.41,204.680626 C90.41,202.940618 90.604998,201.275634 90.995,199.685626 C91.3850019,198.095618 92.0149956,196.685632 92.885,195.455626 C93.7550043,194.22562 94.8349935,193.25063 96.125,192.530626 C97.4150064,191.810623 98.959991,191.450626 100.76,191.450626 C102.86001,191.450626 104.599993,191.840622 105.98,192.620626 C107.360007,193.40063 108.469996,194.45062 109.31,195.770626 C110.150004,197.090633 110.749998,198.605618 111.11,200.315626 C111.470002,202.025635 111.65,203.840617 111.65,205.760626 C111.65,207.440635 111.425002,209.045619 110.975,210.575626 C110.524998,212.105634 109.850004,213.47062 108.95,214.670626 C108.049995,215.870632 106.910007,216.830623 105.53,217.550626 C104.149993,218.27063 102.560009,218.630626 100.76,218.630626 L100.76,218.630626 Z M123.8,226.640626 L123.8,183.080626 L111.65,183.080626 L111.65,189.290626 L111.47,189.290626 C109.909992,186.590613 107.975012,184.670632 105.665,183.530626 C103.354988,182.390621 100.670015,181.820626 97.61,181.820626 C94.3699838,181.820626 91.5050125,182.45062 89.015,183.710626 C86.5249876,184.970633 84.4400084,186.665616 82.76,188.795626 C81.0799916,190.925637 79.8050044,193.385612 78.935,196.175626 C78.0649957,198.96564 77.63,201.860611 77.63,204.860626 C77.63,208.040642 78.0049963,211.055612 78.755,213.905626 C79.5050038,216.75564 80.6899919,219.245616 82.31,221.375626 C83.9300081,223.505637 85.9999874,225.18562 88.52,226.415626 C91.0400126,227.645632 94.0399826,228.260626 97.52,228.260626 C100.340014,228.260626 103.024987,227.675632 105.575,226.505626 C108.125013,225.33562 110.089993,223.520639 111.47,221.060626 L111.65,221.060626 L111.65,227.180626 C111.71,230.480643 110.915008,233.210615 109.265,235.370626 C107.614992,237.530637 104.990018,238.610626 101.39,238.610626 C99.1099886,238.610626 97.1000087,238.145631 95.36,237.215626 C93.6199913,236.285622 92.450003,234.620638 91.85,232.220626 L79.16,232.220626 C79.3400009,234.860639 80.0749936,237.125617 81.365,239.015626 C82.6550065,240.905636 84.2749903,242.45062 86.225,243.650626 C88.1750098,244.850632 90.3349882,245.735623 92.705,246.305626 C95.0750119,246.875629 97.3999886,247.160626 99.68,247.160626 C105.020027,247.160626 109.279984,246.440633 112.46,245.000626 C115.640016,243.560619 118.069992,241.805637 119.75,239.735626 C121.430008,237.665616 122.524997,235.430638 123.035,233.030626 C123.545003,230.630614 123.8,228.500636 123.8,226.640626 L123.8,226.640626 Z M145.2,175.880626 L145.2,165.350626 L132.42,165.350626 L132.42,175.880626 L145.2,175.880626 Z M132.42,183.080626 L132.42,229.610626 L145.2,229.610626 L145.2,183.080626 L132.42,183.080626 Z M169.48,183.080626 L169.48,169.130626 L156.7,169.130626 L156.7,183.080626 L148.96,183.080626 L148.96,191.630626 L156.7,191.630626 L156.7,219.080626 C156.7,221.420638 157.089996,223.310619 157.87,224.750626 C158.650004,226.190633 159.714993,227.300622 161.065,228.080626 C162.415007,228.86063 163.974991,229.385625 165.745,229.655626 C167.515009,229.925628 169.38999,230.060626 171.37,230.060626 C172.630006,230.060626 173.919993,230.030627 175.24,229.970626 C176.560007,229.910626 177.759995,229.790627 178.84,229.610626 L178.84,219.710626 C178.239997,219.830627 177.610003,219.920626 176.95,219.980626 C176.289997,220.040627 175.600004,220.070626 174.88,220.070626 C172.719989,220.070626 171.280004,219.71063 170.56,218.990626 C169.839996,218.270623 169.48,216.830637 169.48,214.670626 L169.48,191.630626 L178.84,191.630626 L178.84,183.080626 L169.48,183.080626 Z M182.42,197.390626 C182.600001,194.390611 183.349993,191.900636 184.67,189.920626 C185.990007,187.940616 187.66999,186.350632 189.71,185.150626 C191.75001,183.95062 194.044987,183.095629 196.595,182.585626 C199.145013,182.075624 201.709987,181.820626 204.29,181.820626 C206.630012,181.820626 208.999988,181.985625 211.4,182.315626 C213.800012,182.645628 215.98999,183.290621 217.97,184.250626 C219.95001,185.210631 221.569994,186.545618 222.83,188.255626 C224.090006,189.965635 224.72,192.230612 224.72,195.050626 L224.72,219.260626 C224.72,221.360637 224.839999,223.370617 225.08,225.290626 C225.320001,227.210636 225.739997,228.650621 226.34,229.610626 L213.38,229.610626 C213.139999,228.890623 212.945001,228.15563 212.795,227.405626 C212.644999,226.655622 212.54,225.89063 212.48,225.110626 C210.43999,227.210637 208.040014,228.680622 205.28,229.520626 C202.519986,230.36063 199.700014,230.780626 196.82,230.780626 C194.599989,230.780626 192.53001,230.510629 190.61,229.970626 C188.68999,229.430624 187.010007,228.590632 185.57,227.450626 C184.129993,226.310621 183.005004,224.870635 182.195,223.130626 C181.384996,221.390618 180.98,219.320638 180.98,216.920626 C180.98,214.280613 181.444995,212.105635 182.375,210.395626 C183.305005,208.685618 184.504993,207.320631 185.975,206.300626 C187.445007,205.280621 189.124991,204.515629 191.015,204.005626 C192.905009,203.495624 194.80999,203.090628 196.73,202.790626 C198.65001,202.490625 200.539991,202.250627 202.4,202.070626 C204.260009,201.890625 205.909993,201.620628 207.35,201.260626 C208.790007,200.900624 209.929996,200.37563 210.77,199.685626 C211.610004,198.995623 212,197.990633 211.94,196.670626 C211.94,195.290619 211.715002,194.19563 211.265,193.385626 C210.814998,192.575622 210.215004,191.945628 209.465,191.495626 C208.714996,191.045624 207.845005,190.745627 206.855,190.595626 C205.864995,190.445625 204.800006,190.370626 203.66,190.370626 C201.139987,190.370626 199.160007,190.910621 197.72,191.990626 C196.279993,193.070632 195.440001,194.870614 195.2,197.390626 L182.42,197.390626 Z M211.94,206.840626 C211.399997,207.320629 210.725004,207.695625 209.915,207.965626 C209.104996,208.235628 208.235005,208.460625 207.305,208.640626 C206.374995,208.820627 205.400005,208.970626 204.38,209.090626 C203.359995,209.210627 202.340005,209.360625 201.32,209.540626 C200.359995,209.720627 199.415005,209.960625 198.485,210.260626 C197.554995,210.560628 196.745003,210.965624 196.055,211.475626 C195.364997,211.985629 194.810002,212.630622 194.39,213.410626 C193.969998,214.19063 193.76,215.18062 193.76,216.380626 C193.76,217.520632 193.969998,218.480622 194.39,219.260626 C194.810002,220.04063 195.379996,220.655624 196.1,221.105626 C196.820004,221.555628 197.659995,221.870625 198.62,222.050626 C199.580005,222.230627 200.569995,222.320626 201.59,222.320626 C204.110013,222.320626 206.059993,221.90063 207.44,221.060626 C208.820007,220.220622 209.839997,219.215632 210.5,218.045626 C211.160003,216.87562 211.564999,215.690632 211.715,214.490626 C211.865001,213.29062 211.94,212.33063 211.94,211.610626 L211.94,206.840626 Z M232.98,165.350626 L232.98,229.610626 L245.76,229.610626 L245.76,165.350626 L232.98,165.350626 Z M7.65,276.241252 L7.65,314.221252 L20.43,314.221252 L20.43,276.241252 L29.25,276.241252 L29.25,267.691252 L20.43,267.691252 L20.43,264.901252 C20.43,262.981243 20.8049962,261.616256 21.555,260.806252 C22.3050038,259.996248 23.5499913,259.591252 25.29,259.591252 C26.9100081,259.591252 28.4699925,259.681252 29.97,259.861252 L29.97,250.321252 C28.8899946,250.261252 27.7800057,250.186253 26.64,250.096252 C25.4999943,250.006252 24.3600057,249.961252 23.22,249.961252 C17.9999739,249.961252 14.1000129,251.281239 11.52,253.921252 C8.9399871,256.561266 7.65,259.951232 7.65,264.091252 L7.65,267.691252 L0,267.691252 L0,276.241252 L7.65,276.241252 Z M32.29,282.001252 C32.4700009,279.001237 33.2199934,276.511262 34.54,274.531252 C35.8600066,272.551243 37.5399898,270.961258 39.58,269.761252 C41.6200102,268.561246 43.9149873,267.706255 46.465,267.196252 C49.0150128,266.68625 51.5799871,266.431252 54.16,266.431252 C56.5000117,266.431252 58.869988,266.596251 61.27,266.926252 C63.670012,267.256254 65.8599901,267.901248 67.84,268.861252 C69.8200099,269.821257 71.4399937,271.156244 72.7,272.866252 C73.9600063,274.576261 74.59,276.841238 74.59,279.661252 L74.59,303.871252 C74.59,305.971263 74.7099988,307.981243 74.95,309.901252 C75.1900012,311.821262 75.609997,313.261248 76.21,314.221252 L63.25,314.221252 C63.0099988,313.501249 62.8150008,312.766256 62.665,312.016252 C62.5149993,311.266249 62.4100003,310.501256 62.35,309.721252 C60.3099898,311.821263 57.9100138,313.291248 55.15,314.131252 C52.3899862,314.971257 49.5700144,315.391252 46.69,315.391252 C44.4699889,315.391252 42.4000096,315.121255 40.48,314.581252 C38.5599904,314.04125 36.8800072,313.201258 35.44,312.061252 C33.9999928,310.921247 32.8750041,309.481261 32.065,307.741252 C31.254996,306.001244 30.85,303.931264 30.85,301.531252 C30.85,298.891239 31.3149954,296.716261 32.245,295.006252 C33.1750047,293.296244 34.3749927,291.931258 35.845,290.911252 C37.3150074,289.891247 38.9949906,289.126255 40.885,288.616252 C42.7750095,288.10625 44.6799904,287.701254 46.6,287.401252 C48.5200096,287.101251 50.4099907,286.861253 52.27,286.681252 C54.1300093,286.501252 55.7799928,286.231254 57.22,285.871252 C58.6600072,285.511251 59.7999958,284.986256 60.64,284.296252 C61.4800042,283.606249 61.8700003,282.601259 61.81,281.281252 C61.81,279.901246 61.5850023,278.806256 61.135,277.996252 C60.6849978,277.186248 60.0850038,276.556255 59.335,276.106252 C58.5849963,275.65625 57.715005,275.356253 56.725,275.206252 C55.7349951,275.056252 54.6700057,274.981252 53.53,274.981252 C51.0099874,274.981252 49.0300072,275.521247 47.59,276.601252 C46.1499928,277.681258 45.3100012,279.48124 45.07,282.001252 L32.29,282.001252 Z M61.81,291.451252 C61.2699973,291.931255 60.5950041,292.306251 59.785,292.576252 C58.974996,292.846254 58.1050047,293.071252 57.175,293.251252 C56.2449954,293.431253 55.2700051,293.581252 54.25,293.701252 C53.2299949,293.821253 52.2100051,293.971252 51.19,294.151252 C50.2299952,294.331253 49.2850047,294.571251 48.355,294.871252 C47.4249954,295.171254 46.6150035,295.57625 45.925,296.086252 C45.2349966,296.596255 44.6800021,297.241249 44.26,298.021252 C43.8399979,298.801256 43.63,299.791246 43.63,300.991252 C43.63,302.131258 43.8399979,303.091249 44.26,303.871252 C44.6800021,304.651256 45.2499964,305.26625 45.97,305.716252 C46.6900036,306.166255 47.5299952,306.481252 48.49,306.661252 C49.4500048,306.841253 50.4399949,306.931252 51.46,306.931252 C53.9800126,306.931252 55.9299931,306.511257 57.31,305.671252 C58.6900069,304.831248 59.7099967,303.826258 60.37,302.656252 C61.0300033,301.486247 61.4349993,300.301258 61.585,299.101252 C61.7350008,297.901246 61.81,296.941256 61.81,296.221252 L61.81,291.451252 Z M114.17,284.071252 L126.68,284.071252 C126.499999,281.071237 125.780006,278.476263 124.52,276.286252 C123.259994,274.096241 121.62501,272.26626 119.615,270.796252 C117.60499,269.326245 115.325013,268.231256 112.775,267.511252 C110.224987,266.791249 107.570014,266.431252 104.81,266.431252 C101.029981,266.431252 97.6700147,267.061246 94.73,268.321252 C91.7899853,269.581259 89.3000102,271.336241 87.26,273.586252 C85.2199898,275.836264 83.6750053,278.506237 82.625,281.596252 C81.5749948,284.686268 81.05,288.031234 81.05,291.631252 C81.05,295.11127 81.6199943,298.306238 82.76,301.216252 C83.9000057,304.126267 85.4899898,306.631242 87.53,308.731252 C89.5700102,310.831263 92.0449855,312.466247 94.955,313.636252 C97.8650146,314.806258 101.059983,315.391252 104.54,315.391252 C110.720031,315.391252 115.78998,313.771269 119.75,310.531252 C123.71002,307.291236 126.109996,302.581283 126.95,296.401252 L114.62,296.401252 C114.199998,299.281267 113.165008,301.576244 111.515,303.286252 C109.864992,304.996261 107.510015,305.851252 104.45,305.851252 C102.46999,305.851252 100.790007,305.401257 99.41,304.501252 C98.0299931,303.601248 96.9350041,302.446259 96.125,301.036252 C95.314996,299.626245 94.7300018,298.051261 94.37,296.311252 C94.0099982,294.571244 93.83,292.861261 93.83,291.181252 C93.83,289.441244 94.0099982,287.686261 94.37,285.916252 C94.7300018,284.146244 95.3449957,282.52626 96.215,281.056252 C97.0850044,279.586245 98.2099931,278.386257 99.59,277.456252 C100.970007,276.526248 102.67999,276.061252 104.72,276.061252 C110.180027,276.061252 113.329996,278.731226 114.17,284.071252 L114.17,284.071252 Z M148.35,267.691252 L148.35,253.741252 L135.57,253.741252 L135.57,267.691252 L127.83,267.691252 L127.83,276.241252 L135.57,276.241252 L135.57,303.691252 C135.57,306.031264 135.959996,307.921245 136.74,309.361252 C137.520004,310.80126 138.584993,311.911249 139.935,312.691252 C141.285007,313.471256 142.844991,313.996251 144.615,314.266252 C146.385009,314.536254 148.25999,314.671252 150.24,314.671252 C151.500006,314.671252 152.789993,314.641253 154.11,314.581252 C155.430007,314.521252 156.629995,314.401253 157.71,314.221252 L157.71,304.321252 C157.109997,304.441253 156.480003,304.531252 155.82,304.591252 C155.159997,304.651253 154.470004,304.681252 153.75,304.681252 C151.589989,304.681252 150.150004,304.321256 149.43,303.601252 C148.709996,302.881249 148.35,301.441263 148.35,299.281252 L148.35,276.241252 L157.71,276.241252 L157.71,267.691252 L148.35,267.691252 Z M173.17,291.001252 C173.17,289.141243 173.349998,287.311261 173.71,285.511252 C174.070002,283.711243 174.684996,282.121259 175.555,280.741252 C176.425004,279.361246 177.579993,278.236257 179.02,277.366252 C180.460007,276.496248 182.259989,276.061252 184.42,276.061252 C186.580011,276.061252 188.394993,276.496248 189.865,277.366252 C191.335007,278.236257 192.504996,279.361246 193.375,280.741252 C194.245004,282.121259 194.859998,283.711243 195.22,285.511252 C195.580002,287.311261 195.76,289.141243 195.76,291.001252 C195.76,292.861262 195.580002,294.676244 195.22,296.446252 C194.859998,298.216261 194.245004,299.806245 193.375,301.216252 C192.504996,302.626259 191.335007,303.751248 189.865,304.591252 C188.394993,305.431257 186.580011,305.851252 184.42,305.851252 C182.259989,305.851252 180.460007,305.431257 179.02,304.591252 C177.579993,303.751248 176.425004,302.626259 175.555,301.216252 C174.684996,299.806245 174.070002,298.216261 173.71,296.446252 C173.349998,294.676244 173.17,292.861262 173.17,291.001252 L173.17,291.001252 Z M160.39,291.001252 C160.39,294.721271 160.959994,298.081237 162.1,301.081252 C163.240006,304.081267 164.85999,306.646242 166.96,308.776252 C169.060011,310.906263 171.579985,312.541247 174.52,313.681252 C177.460015,314.821258 180.759982,315.391252 184.42,315.391252 C188.080018,315.391252 191.394985,314.821258 194.365,313.681252 C197.335015,312.541247 199.86999,310.906263 201.97,308.776252 C204.070011,306.646242 205.689994,304.081267 206.83,301.081252 C207.970006,298.081237 208.54,294.721271 208.54,291.001252 C208.54,287.281234 207.970006,283.906268 206.83,280.876252 C205.689994,277.846237 204.070011,275.266263 201.97,273.136252 C199.86999,271.006242 197.335015,269.356258 194.365,268.186252 C191.394985,267.016247 188.080018,266.431252 184.42,266.431252 C180.759982,266.431252 177.460015,267.016247 174.52,268.186252 C171.579985,269.356258 169.060011,271.006242 166.96,273.136252 C164.85999,275.266263 163.240006,277.846237 162.1,280.876252 C160.959994,283.906268 160.39,287.281234 160.39,291.001252 L160.39,291.001252 Z M214.82,267.691252 L214.82,314.221252 L227.6,314.221252 L227.6,293.251252 C227.6,291.151242 227.809998,289.201261 228.23,287.401252 C228.650002,285.601243 229.354995,284.026259 230.345,282.676252 C231.335005,281.326246 232.639992,280.261256 234.26,279.481252 C235.880008,278.701249 237.859988,278.311252 240.2,278.311252 C240.980004,278.311252 241.789996,278.356252 242.63,278.446252 C243.470004,278.536253 244.189997,278.641252 244.79,278.761252 L244.79,266.881252 C243.769995,266.581251 242.840004,266.431252 242,266.431252 C240.379992,266.431252 238.820007,266.67125 237.32,267.151252 C235.819992,267.631255 234.410007,268.306248 233.09,269.176252 C231.769993,270.046257 230.600005,271.096246 229.58,272.326252 C228.559995,273.556259 227.750003,274.891245 227.15,276.331252 L226.97,276.331252 L226.97,267.691252 L214.82,267.691252 Z M292.22,267.691252 L278.99,267.691252 L268.82,299.551252 L268.64,299.551252 L258.11,267.691252 L248.93,267.665768 L248.93,279.013444 L260.81,311.341252 C261.170002,312.241257 261.35,313.201247 261.35,314.221252 C261.35,315.601259 260.945004,316.861247 260.135,318.001252 C259.324996,319.141258 258.080008,319.801252 256.4,319.981252 C255.139994,320.041253 253.880006,320.011253 252.62,319.891252 C251.359994,319.771252 250.130006,319.651253 248.93,319.531252 L248.93,330.061252 C250.250007,330.181253 251.554994,330.286252 252.845,330.376252 C254.135006,330.466253 255.439993,330.511252 256.76,330.511252 C261.140022,330.511252 264.559988,329.701261 267.02,328.081252 C269.480012,326.461244 271.399993,323.761271 272.78,319.981252 L292.22,267.691252 Z M293.08,300.361252 L293.08,314.221252 L307.21,314.221252 L307.21,300.361252 L293.08,300.361252 Z" id="The"></path>
                </g>
            </g>
        </g>
    </g>
</svg>