<svg id="SvgjsSvg1109" xmlns="http://www.w3.org/2000/svg" version="1.1" xmlns:xlink="http://www.w3.org/1999/xlink" xmlns:svgjs="http://svgjs.com/svgjs" width="30" height="26"><defs id="SvgjsDefs1110"></defs><path id="SvgjsPath1111" d="M1306.06 2229.18C1306.06 2229.18 1310.7 2235.14 1318.6399999999999 2235.54C1318.6399999999999 2235.54 1317.61 2232.0099999999998 1320.9099999999999 2229.2799999999997C1324.2099999999998 2226.5499999999997 1328.33 2228.8799999999997 1329.1499999999999 2229.89C1329.1499999999999 2229.89 1331.53 2229.48 1333.07 2228.47C1333.07 2228.47 1332.56 2230.49 1330.6 2231.81C1330.6 2231.81 1332.87 2231.5 1334 2230.9C1334 2230.9 1332.87 2232.61 1330.91 2234.03C1330.91 2234.03 1331.73 2241.5 1325.13 2247.67C1318.64 2253.83 1307.8100000000002 2252.52 1304 2249.28C1304 2249.28 1309.26 2249.8900000000003 1312.97 2246.76C1312.97 2246.76 1308.54 2246.6600000000003 1307.3 2242.6200000000003C1307.3 2242.6200000000003 1309.46 2242.82 1309.8799999999999 2242.4100000000003C1309.8799999999999 2242.4100000000003 1305.1299999999999 2241.3 1305.1299999999999 2236.4500000000003C1305.1299999999999 2236.4500000000003 1306.58 2237.1600000000003 1307.9199999999998 2237.1600000000003C1307.81 2237.26 1303.2799999999997 2234.03 1306.06 2229.1800000000003Z " fill="#ffffff" fill-opacity="1" transform="matrix(1,0,0,1,-1304,-2227)"></path></svg>